<svg width="23" height="24" viewBox="0 0 23 24" fill="none" xmlns="http://www.w3.org/2000/svg">
<path d="M21.2975 0H1.69817C0.759003 0 0 0.77344 0 1.72969V22.2656C0 23.2218 0.759003 24 1.69817 24H21.2975C22.2362 24 23 23.2219 23 22.2703V1.72969C23 0.77344 22.2362 0 21.2975 0ZM6.82381 20.4515H3.40975V8.9953H6.82381V20.4515ZM5.11655 7.4344C4.02069 7.4344 3.13567 6.51095 3.13567 5.37185C3.13567 4.23281 4.02069 3.30938 5.11655 3.30938C6.20809 3.30938 7.09311 4.23281 7.09311 5.37185C7.09311 6.50625 6.20809 7.4344 5.11655 7.4344ZM19.5994 20.4515H16.1896V14.8828C16.1896 13.5562 16.1676 11.8453 14.4153 11.8453C12.6409 11.8453 12.3716 13.2937 12.3716 14.7891V20.4515H8.96665V8.9953H12.2365V10.561H12.2815C12.7353 9.66095 13.8494 8.7094 15.5073 8.7094C18.9616 8.7094 19.5994 11.0813 19.5994 14.1657V20.4515Z" fill="#D41553"/>
</svg>
