<svg width="24" height="20" viewBox="0 0 24 20" fill="none" xmlns="http://www.w3.org/2000/svg">
<path d="M8.08718 19.3676C16.7866 19.3676 21.5463 12.1586 21.5463 5.9088C21.5463 5.70612 21.5415 5.49898 21.5324 5.2963C22.4586 4.62673 23.2575 3.79738 23.8921 2.84719C23.0298 3.23083 22.1141 3.48138 21.1769 3.59028C22.1641 2.99862 22.9029 2.06912 23.257 0.97411C22.3284 1.52444 21.3128 1.91265 20.2541 2.1221C19.5407 1.36399 18.5972 0.862034 17.5696 0.693834C16.5426 0.525635 15.4881 0.70056 14.5701 1.19156C13.6525 1.68257 12.9218 2.46231 12.4914 3.41023C12.061 4.35814 11.9548 5.42144 12.1892 6.43574C10.309 6.34134 8.46956 5.85293 6.79011 5.00206C5.11066 4.15114 3.62865 2.95685 2.44064 1.49654C1.83679 2.53777 1.65184 3.7699 1.92374 4.94244C2.19565 6.11503 2.90374 7.14014 3.9044 7.80933C3.15307 7.7855 2.41855 7.58325 1.76089 7.21936V7.27792C1.76041 8.37062 2.138 9.42978 2.83024 10.2755C3.52201 11.1211 4.48567 11.7011 5.55647 11.9167C4.86086 12.1071 4.13066 12.1348 3.42257 11.9978C3.72473 12.9375 4.31273 13.7594 5.1049 14.3488C5.89658 14.9382 6.85257 15.2656 7.83977 15.2854C6.16417 16.6016 4.09415 17.3155 1.96361 17.3121C1.58602 17.3115 1.20844 17.2884 0.833252 17.2427C2.9979 18.6314 5.51564 19.3689 8.08718 19.3676Z" fill="#D41553"/>
</svg>
